<mxfile host="Electron" modified="2023-12-17T17:29:30.695Z" agent="Mozilla/5.0 (Windows NT 10.0; Win64; x64) AppleWebKit/537.36 (KHTML, like Gecko) draw.io/22.0.3 Chrome/114.0.5735.289 Electron/25.8.4 Safari/537.36" etag="9JvZr2jFE7W0lAe914Wh" version="22.0.3" type="device">
  <diagram name="Page-1" id="wi9bPtCulPSvVSiGjirW">
    <mxGraphModel dx="1763" dy="1640" grid="1" gridSize="10" guides="1" tooltips="1" connect="1" arrows="1" fold="1" page="1" pageScale="1" pageWidth="850" pageHeight="1100" background="none" math="0" shadow="0">
      <root>
        <mxCell id="0" />
        <mxCell id="1" parent="0" />
        <mxCell id="anM-W0v6J8RK6cMc1XP8-233" value="" style="rounded=0;whiteSpace=wrap;html=1;direction=south;fillColor=none;strokeWidth=3;fontColor=#ffffff;strokeColor=#006EAF;" vertex="1" parent="1">
          <mxGeometry x="60" y="80" width="150" height="310" as="geometry" />
        </mxCell>
        <mxCell id="anM-W0v6J8RK6cMc1XP8-88" value="" style="rounded=0;whiteSpace=wrap;html=1;fillColor=none;strokeColor=#660000;strokeWidth=5;" vertex="1" parent="1">
          <mxGeometry x="-360" y="70" width="560" height="150" as="geometry" />
        </mxCell>
        <mxCell id="anM-W0v6J8RK6cMc1XP8-38" style="edgeStyle=orthogonalEdgeStyle;rounded=0;orthogonalLoop=1;jettySize=auto;html=1;entryX=0;entryY=0.5;entryDx=0;entryDy=0;endArrow=none;endFill=0;" edge="1" parent="1" source="anM-W0v6J8RK6cMc1XP8-1" target="anM-W0v6J8RK6cMc1XP8-37">
          <mxGeometry relative="1" as="geometry" />
        </mxCell>
        <mxCell id="anM-W0v6J8RK6cMc1XP8-1" value="Përdoruesi" style="whiteSpace=wrap;html=1;align=center;fillColor=#a20025;fontColor=#ffffff;strokeColor=#6F0000;" vertex="1" parent="1">
          <mxGeometry x="80" y="120" width="100" height="40" as="geometry" />
        </mxCell>
        <mxCell id="anM-W0v6J8RK6cMc1XP8-26" style="edgeStyle=orthogonalEdgeStyle;rounded=0;orthogonalLoop=1;jettySize=auto;html=1;entryX=0.25;entryY=1;entryDx=0;entryDy=0;endArrow=none;endFill=0;" edge="1" parent="1" source="anM-W0v6J8RK6cMc1XP8-2" target="anM-W0v6J8RK6cMc1XP8-1">
          <mxGeometry relative="1" as="geometry" />
        </mxCell>
        <mxCell id="anM-W0v6J8RK6cMc1XP8-2" value="Destinacioni" style="ellipse;whiteSpace=wrap;html=1;align=center;fillColor=#e51400;fontColor=#ffffff;strokeColor=#B20000;" vertex="1" parent="1">
          <mxGeometry y="160" width="70" height="30" as="geometry" />
        </mxCell>
        <mxCell id="anM-W0v6J8RK6cMc1XP8-27" style="edgeStyle=orthogonalEdgeStyle;rounded=0;orthogonalLoop=1;jettySize=auto;html=1;entryX=0;entryY=0;entryDx=0;entryDy=0;endArrow=none;endFill=0;" edge="1" parent="1" source="anM-W0v6J8RK6cMc1XP8-4" target="anM-W0v6J8RK6cMc1XP8-1">
          <mxGeometry relative="1" as="geometry" />
        </mxCell>
        <mxCell id="anM-W0v6J8RK6cMc1XP8-4" value="ID" style="ellipse;whiteSpace=wrap;html=1;align=center;fontStyle=4;fillColor=#e51400;fontColor=#ffffff;strokeColor=#B20000;" vertex="1" parent="1">
          <mxGeometry x="40" y="85" width="60" height="20" as="geometry" />
        </mxCell>
        <mxCell id="anM-W0v6J8RK6cMc1XP8-25" style="edgeStyle=orthogonalEdgeStyle;rounded=0;orthogonalLoop=1;jettySize=auto;html=1;entryX=0;entryY=0.75;entryDx=0;entryDy=0;endArrow=none;endFill=0;" edge="1" parent="1" source="anM-W0v6J8RK6cMc1XP8-5" target="anM-W0v6J8RK6cMc1XP8-1">
          <mxGeometry relative="1" as="geometry" />
        </mxCell>
        <mxCell id="anM-W0v6J8RK6cMc1XP8-5" value="Emri" style="ellipse;whiteSpace=wrap;html=1;align=center;fillColor=#e51400;fontColor=#ffffff;strokeColor=#B20000;" vertex="1" parent="1">
          <mxGeometry x="-40" y="120" width="70" height="30" as="geometry" />
        </mxCell>
        <mxCell id="anM-W0v6J8RK6cMc1XP8-22" style="edgeStyle=orthogonalEdgeStyle;rounded=0;orthogonalLoop=1;jettySize=auto;html=1;endArrow=none;endFill=0;" edge="1" parent="1" source="anM-W0v6J8RK6cMc1XP8-6" target="anM-W0v6J8RK6cMc1XP8-1">
          <mxGeometry relative="1" as="geometry" />
        </mxCell>
        <mxCell id="anM-W0v6J8RK6cMc1XP8-6" value="Mbiemri" style="ellipse;whiteSpace=wrap;html=1;align=center;fillColor=#e51400;fontColor=#ffffff;strokeColor=#B20000;" vertex="1" parent="1">
          <mxGeometry x="80" y="40" width="70" height="30" as="geometry" />
        </mxCell>
        <mxCell id="anM-W0v6J8RK6cMc1XP8-23" style="edgeStyle=orthogonalEdgeStyle;rounded=0;orthogonalLoop=1;jettySize=auto;html=1;entryX=0.75;entryY=0;entryDx=0;entryDy=0;endArrow=none;endFill=0;" edge="1" parent="1" source="anM-W0v6J8RK6cMc1XP8-8" target="anM-W0v6J8RK6cMc1XP8-1">
          <mxGeometry relative="1" as="geometry" />
        </mxCell>
        <mxCell id="anM-W0v6J8RK6cMc1XP8-8" value="Numri i telefonit" style="ellipse;shape=doubleEllipse;margin=3;whiteSpace=wrap;html=1;align=center;fillColor=#e51400;fontColor=#ffffff;strokeColor=#B20000;" vertex="1" parent="1">
          <mxGeometry x="160" y="40" width="80" height="30" as="geometry" />
        </mxCell>
        <mxCell id="anM-W0v6J8RK6cMc1XP8-24" style="edgeStyle=orthogonalEdgeStyle;rounded=0;orthogonalLoop=1;jettySize=auto;html=1;entryX=0;entryY=0.5;entryDx=0;entryDy=0;endArrow=none;endFill=0;" edge="1" parent="1" source="anM-W0v6J8RK6cMc1XP8-12" target="anM-W0v6J8RK6cMc1XP8-1">
          <mxGeometry relative="1" as="geometry" />
        </mxCell>
        <mxCell id="anM-W0v6J8RK6cMc1XP8-12" value="Mënyra e pagesës" style="ellipse;whiteSpace=wrap;html=1;align=center;fillColor=#e51400;fontColor=#ffffff;strokeColor=#B20000;" vertex="1" parent="1">
          <mxGeometry x="-80" y="60" width="80" height="30" as="geometry" />
        </mxCell>
        <mxCell id="anM-W0v6J8RK6cMc1XP8-17" style="edgeStyle=orthogonalEdgeStyle;rounded=0;orthogonalLoop=1;jettySize=auto;html=1;entryX=0.5;entryY=1;entryDx=0;entryDy=0;endArrow=none;endFill=0;" edge="1" parent="1" source="anM-W0v6J8RK6cMc1XP8-13" target="anM-W0v6J8RK6cMc1XP8-16">
          <mxGeometry relative="1" as="geometry" />
        </mxCell>
        <mxCell id="anM-W0v6J8RK6cMc1XP8-20" style="edgeStyle=orthogonalEdgeStyle;rounded=0;orthogonalLoop=1;jettySize=auto;html=1;entryX=0;entryY=0.25;entryDx=0;entryDy=0;endArrow=none;endFill=0;" edge="1" parent="1" source="anM-W0v6J8RK6cMc1XP8-13" target="anM-W0v6J8RK6cMc1XP8-1">
          <mxGeometry relative="1" as="geometry" />
        </mxCell>
        <mxCell id="anM-W0v6J8RK6cMc1XP8-13" value="Adresa" style="ellipse;whiteSpace=wrap;html=1;align=center;fillColor=#e51400;fontColor=#ffffff;strokeColor=#B20000;" vertex="1" parent="1">
          <mxGeometry x="-10" y="30" width="80" height="30" as="geometry" />
        </mxCell>
        <mxCell id="anM-W0v6J8RK6cMc1XP8-18" style="edgeStyle=orthogonalEdgeStyle;rounded=0;orthogonalLoop=1;jettySize=auto;html=1;entryX=0;entryY=1;entryDx=0;entryDy=0;endArrow=none;endFill=0;" edge="1" parent="1" source="anM-W0v6J8RK6cMc1XP8-14" target="anM-W0v6J8RK6cMc1XP8-16">
          <mxGeometry relative="1" as="geometry" />
        </mxCell>
        <mxCell id="anM-W0v6J8RK6cMc1XP8-14" value="Rruga&amp;nbsp;" style="ellipse;whiteSpace=wrap;html=1;align=center;fillColor=#e51400;fontColor=#ffffff;strokeColor=#B20000;" vertex="1" parent="1">
          <mxGeometry x="-80" y="-20" width="100" height="40" as="geometry" />
        </mxCell>
        <mxCell id="anM-W0v6J8RK6cMc1XP8-19" style="edgeStyle=orthogonalEdgeStyle;rounded=0;orthogonalLoop=1;jettySize=auto;html=1;entryX=1;entryY=1;entryDx=0;entryDy=0;endArrow=none;endFill=0;" edge="1" parent="1" source="anM-W0v6J8RK6cMc1XP8-15" target="anM-W0v6J8RK6cMc1XP8-16">
          <mxGeometry relative="1" as="geometry" />
        </mxCell>
        <mxCell id="anM-W0v6J8RK6cMc1XP8-15" value="Qyteti" style="ellipse;whiteSpace=wrap;html=1;align=center;fillColor=#e51400;fontColor=#ffffff;strokeColor=#B20000;" vertex="1" parent="1">
          <mxGeometry x="60" y="-20" width="100" height="40" as="geometry" />
        </mxCell>
        <mxCell id="anM-W0v6J8RK6cMc1XP8-16" value="ZIP Code" style="ellipse;whiteSpace=wrap;html=1;align=center;fillColor=#e51400;fontColor=#ffffff;strokeColor=#B20000;" vertex="1" parent="1">
          <mxGeometry x="-10" y="-80" width="100" height="40" as="geometry" />
        </mxCell>
        <mxCell id="anM-W0v6J8RK6cMc1XP8-28" value="Sistemi" style="whiteSpace=wrap;html=1;align=center;fillColor=#6a00ff;strokeColor=#3700CC;fontColor=#ffffff;" vertex="1" parent="1">
          <mxGeometry x="420" y="-50" width="100" height="40" as="geometry" />
        </mxCell>
        <mxCell id="anM-W0v6J8RK6cMc1XP8-33" style="edgeStyle=orthogonalEdgeStyle;rounded=0;orthogonalLoop=1;jettySize=auto;html=1;entryX=0.5;entryY=0;entryDx=0;entryDy=0;endArrow=none;endFill=0;" edge="1" parent="1" source="anM-W0v6J8RK6cMc1XP8-29" target="anM-W0v6J8RK6cMc1XP8-28">
          <mxGeometry relative="1" as="geometry" />
        </mxCell>
        <mxCell id="anM-W0v6J8RK6cMc1XP8-29" value="ID" style="ellipse;whiteSpace=wrap;html=1;align=center;fontStyle=4;fillColor=#1ba1e2;fontColor=#ffffff;strokeColor=#006EAF;" vertex="1" parent="1">
          <mxGeometry x="400" y="-110" width="80" height="30" as="geometry" />
        </mxCell>
        <mxCell id="anM-W0v6J8RK6cMc1XP8-34" style="edgeStyle=orthogonalEdgeStyle;rounded=0;orthogonalLoop=1;jettySize=auto;html=1;entryX=0.75;entryY=0;entryDx=0;entryDy=0;endArrow=none;endFill=0;" edge="1" parent="1" source="anM-W0v6J8RK6cMc1XP8-30" target="anM-W0v6J8RK6cMc1XP8-28">
          <mxGeometry relative="1" as="geometry" />
        </mxCell>
        <mxCell id="anM-W0v6J8RK6cMc1XP8-30" value="Koha e fillimit" style="ellipse;whiteSpace=wrap;html=1;align=center;fillColor=#1ba1e2;fontColor=#ffffff;strokeColor=#006EAF;" vertex="1" parent="1">
          <mxGeometry x="490" y="-110" width="80" height="30" as="geometry" />
        </mxCell>
        <mxCell id="anM-W0v6J8RK6cMc1XP8-36" style="edgeStyle=orthogonalEdgeStyle;rounded=0;orthogonalLoop=1;jettySize=auto;html=1;entryX=1;entryY=0.5;entryDx=0;entryDy=0;endArrow=none;endFill=0;" edge="1" parent="1" source="anM-W0v6J8RK6cMc1XP8-31" target="anM-W0v6J8RK6cMc1XP8-28">
          <mxGeometry relative="1" as="geometry" />
        </mxCell>
        <mxCell id="anM-W0v6J8RK6cMc1XP8-31" value="Koha e mbarimit" style="ellipse;whiteSpace=wrap;html=1;align=center;fillColor=#1ba1e2;fontColor=#ffffff;strokeColor=#006EAF;" vertex="1" parent="1">
          <mxGeometry x="570" y="-40" width="70" height="30" as="geometry" />
        </mxCell>
        <mxCell id="anM-W0v6J8RK6cMc1XP8-35" style="edgeStyle=orthogonalEdgeStyle;rounded=0;orthogonalLoop=1;jettySize=auto;html=1;entryX=1;entryY=0.25;entryDx=0;entryDy=0;endArrow=none;endFill=0;" edge="1" parent="1" source="anM-W0v6J8RK6cMc1XP8-32" target="anM-W0v6J8RK6cMc1XP8-28">
          <mxGeometry relative="1" as="geometry" />
        </mxCell>
        <mxCell id="anM-W0v6J8RK6cMc1XP8-32" value="Web-faqja" style="ellipse;whiteSpace=wrap;html=1;align=center;fillColor=#1ba1e2;fontColor=#ffffff;strokeColor=#006EAF;" vertex="1" parent="1">
          <mxGeometry x="560" y="-80" width="80" height="30" as="geometry" />
        </mxCell>
        <mxCell id="anM-W0v6J8RK6cMc1XP8-39" style="edgeStyle=orthogonalEdgeStyle;rounded=0;orthogonalLoop=1;jettySize=auto;html=1;entryX=0;entryY=0.5;entryDx=0;entryDy=0;endArrow=none;endFill=0;" edge="1" parent="1" source="anM-W0v6J8RK6cMc1XP8-37" target="anM-W0v6J8RK6cMc1XP8-28">
          <mxGeometry relative="1" as="geometry" />
        </mxCell>
        <mxCell id="anM-W0v6J8RK6cMc1XP8-37" value="&lt;font color=&quot;#000000&quot;&gt;Regjistrohen&lt;/font&gt;" style="shape=rhombus;perimeter=rhombusPerimeter;whiteSpace=wrap;html=1;align=center;fillColor=#f8cecc;strokeColor=#b85450;gradientColor=#ea6b66;" vertex="1" parent="1">
          <mxGeometry x="300" y="10" width="120" height="60" as="geometry" />
        </mxCell>
        <mxCell id="anM-W0v6J8RK6cMc1XP8-40" value="*" style="text;html=1;align=center;verticalAlign=middle;resizable=0;points=[];autosize=1;strokeColor=none;fillColor=none;" vertex="1" parent="1">
          <mxGeometry x="175" y="120" width="30" height="30" as="geometry" />
        </mxCell>
        <mxCell id="anM-W0v6J8RK6cMc1XP8-41" value="1" style="text;html=1;align=center;verticalAlign=middle;resizable=0;points=[];autosize=1;strokeColor=none;fillColor=none;" vertex="1" parent="1">
          <mxGeometry x="395" y="-60" width="30" height="30" as="geometry" />
        </mxCell>
        <mxCell id="anM-W0v6J8RK6cMc1XP8-42" value="Rezervimi" style="whiteSpace=wrap;html=1;align=center;fillColor=#d80073;fontColor=#ffffff;strokeColor=#A50040;" vertex="1" parent="1">
          <mxGeometry x="80" y="300" width="100" height="40" as="geometry" />
        </mxCell>
        <mxCell id="anM-W0v6J8RK6cMc1XP8-50" style="edgeStyle=orthogonalEdgeStyle;rounded=0;orthogonalLoop=1;jettySize=auto;html=1;entryX=0;entryY=0.25;entryDx=0;entryDy=0;endArrow=none;endFill=0;" edge="1" parent="1" source="anM-W0v6J8RK6cMc1XP8-43" target="anM-W0v6J8RK6cMc1XP8-42">
          <mxGeometry relative="1" as="geometry" />
        </mxCell>
        <mxCell id="anM-W0v6J8RK6cMc1XP8-43" value="Data" style="ellipse;whiteSpace=wrap;html=1;align=center;fillColor=#76608a;fontColor=#ffffff;strokeColor=#432D57;" vertex="1" parent="1">
          <mxGeometry x="-10" y="300" width="70" height="20" as="geometry" />
        </mxCell>
        <mxCell id="anM-W0v6J8RK6cMc1XP8-47" style="edgeStyle=orthogonalEdgeStyle;rounded=0;orthogonalLoop=1;jettySize=auto;html=1;entryX=0.25;entryY=1;entryDx=0;entryDy=0;endArrow=none;endFill=0;" edge="1" parent="1" source="anM-W0v6J8RK6cMc1XP8-44" target="anM-W0v6J8RK6cMc1XP8-42">
          <mxGeometry relative="1" as="geometry" />
        </mxCell>
        <mxCell id="anM-W0v6J8RK6cMc1XP8-44" value="Ulesja" style="ellipse;whiteSpace=wrap;html=1;align=center;fillColor=#76608a;fontColor=#ffffff;strokeColor=#432D57;" vertex="1" parent="1">
          <mxGeometry x="20" y="370" width="70" height="20" as="geometry" />
        </mxCell>
        <mxCell id="anM-W0v6J8RK6cMc1XP8-49" style="edgeStyle=orthogonalEdgeStyle;rounded=0;orthogonalLoop=1;jettySize=auto;html=1;endArrow=none;endFill=0;" edge="1" parent="1" source="anM-W0v6J8RK6cMc1XP8-45" target="anM-W0v6J8RK6cMc1XP8-42">
          <mxGeometry relative="1" as="geometry" />
        </mxCell>
        <mxCell id="anM-W0v6J8RK6cMc1XP8-45" value="ID" style="ellipse;whiteSpace=wrap;html=1;align=center;fontStyle=4;fillColor=#76608a;fontColor=#ffffff;strokeColor=#432D57;" vertex="1" parent="1">
          <mxGeometry x="-100" y="310" width="80" height="30" as="geometry" />
        </mxCell>
        <mxCell id="anM-W0v6J8RK6cMc1XP8-48" style="edgeStyle=orthogonalEdgeStyle;rounded=0;orthogonalLoop=1;jettySize=auto;html=1;entryX=0;entryY=0.75;entryDx=0;entryDy=0;endArrow=none;endFill=0;" edge="1" parent="1" source="anM-W0v6J8RK6cMc1XP8-46" target="anM-W0v6J8RK6cMc1XP8-42">
          <mxGeometry relative="1" as="geometry" />
        </mxCell>
        <mxCell id="anM-W0v6J8RK6cMc1XP8-46" value="Numri i fluturimit" style="ellipse;whiteSpace=wrap;html=1;align=center;fillColor=#76608a;fontColor=#ffffff;strokeColor=#432D57;" vertex="1" parent="1">
          <mxGeometry x="-70" y="350" width="90" height="30" as="geometry" />
        </mxCell>
        <mxCell id="anM-W0v6J8RK6cMc1XP8-52" style="edgeStyle=orthogonalEdgeStyle;rounded=0;orthogonalLoop=1;jettySize=auto;html=1;entryX=0.5;entryY=1;entryDx=0;entryDy=0;endArrow=none;endFill=0;" edge="1" parent="1" source="anM-W0v6J8RK6cMc1XP8-51" target="anM-W0v6J8RK6cMc1XP8-1">
          <mxGeometry relative="1" as="geometry" />
        </mxCell>
        <mxCell id="anM-W0v6J8RK6cMc1XP8-53" style="edgeStyle=orthogonalEdgeStyle;rounded=0;orthogonalLoop=1;jettySize=auto;html=1;entryX=0.5;entryY=0;entryDx=0;entryDy=0;endArrow=none;endFill=0;" edge="1" parent="1" source="anM-W0v6J8RK6cMc1XP8-51" target="anM-W0v6J8RK6cMc1XP8-42">
          <mxGeometry relative="1" as="geometry" />
        </mxCell>
        <mxCell id="anM-W0v6J8RK6cMc1XP8-51" value="Rezervon" style="shape=rhombus;perimeter=rhombusPerimeter;whiteSpace=wrap;html=1;align=center;fillColor=#f5f5f5;gradientColor=#b3b3b3;strokeColor=#666666;fontColor=#000000;" vertex="1" parent="1">
          <mxGeometry x="90" y="210" width="80" height="40" as="geometry" />
        </mxCell>
        <mxCell id="anM-W0v6J8RK6cMc1XP8-54" value="1" style="text;html=1;align=center;verticalAlign=middle;resizable=0;points=[];autosize=1;strokeColor=none;fillColor=none;" vertex="1" parent="1">
          <mxGeometry x="110" y="150" width="30" height="30" as="geometry" />
        </mxCell>
        <mxCell id="anM-W0v6J8RK6cMc1XP8-55" value="*" style="text;html=1;align=center;verticalAlign=middle;resizable=0;points=[];autosize=1;strokeColor=none;fillColor=none;" vertex="1" parent="1">
          <mxGeometry x="110" y="280" width="30" height="30" as="geometry" />
        </mxCell>
        <mxCell id="anM-W0v6J8RK6cMc1XP8-56" value="Fluturimi" style="whiteSpace=wrap;html=1;align=center;fillColor=#ffcccc;strokeColor=#36393d;fontColor=#000000;" vertex="1" parent="1">
          <mxGeometry x="90" y="570" width="100" height="40" as="geometry" />
        </mxCell>
        <mxCell id="anM-W0v6J8RK6cMc1XP8-65" style="edgeStyle=orthogonalEdgeStyle;rounded=0;orthogonalLoop=1;jettySize=auto;html=1;entryX=0;entryY=0.75;entryDx=0;entryDy=0;endArrow=none;endFill=0;" edge="1" parent="1" source="anM-W0v6J8RK6cMc1XP8-57" target="anM-W0v6J8RK6cMc1XP8-56">
          <mxGeometry relative="1" as="geometry" />
        </mxCell>
        <mxCell id="anM-W0v6J8RK6cMc1XP8-57" value="Numri i fluturimit" style="ellipse;whiteSpace=wrap;html=1;align=center;fontStyle=4;fillColor=#ffcccc;strokeColor=#36393d;fontColor=#000000;" vertex="1" parent="1">
          <mxGeometry x="10" y="620" width="80" height="30" as="geometry" />
        </mxCell>
        <mxCell id="anM-W0v6J8RK6cMc1XP8-66" style="edgeStyle=orthogonalEdgeStyle;rounded=0;orthogonalLoop=1;jettySize=auto;html=1;entryX=0.25;entryY=1;entryDx=0;entryDy=0;endArrow=none;endFill=0;" edge="1" parent="1" source="anM-W0v6J8RK6cMc1XP8-58" target="anM-W0v6J8RK6cMc1XP8-56">
          <mxGeometry relative="1" as="geometry" />
        </mxCell>
        <mxCell id="anM-W0v6J8RK6cMc1XP8-58" value="Vendndodhja" style="ellipse;whiteSpace=wrap;html=1;align=center;fillColor=#ffcccc;strokeColor=#36393d;fontColor=#000000;" vertex="1" parent="1">
          <mxGeometry x="95" y="630" width="70" height="30" as="geometry" />
        </mxCell>
        <mxCell id="anM-W0v6J8RK6cMc1XP8-67" style="edgeStyle=orthogonalEdgeStyle;rounded=0;orthogonalLoop=1;jettySize=auto;html=1;entryX=1;entryY=0.5;entryDx=0;entryDy=0;endArrow=none;endFill=0;" edge="1" parent="1" source="anM-W0v6J8RK6cMc1XP8-59" target="anM-W0v6J8RK6cMc1XP8-56">
          <mxGeometry relative="1" as="geometry" />
        </mxCell>
        <mxCell id="anM-W0v6J8RK6cMc1XP8-59" value="Destinacioni" style="ellipse;whiteSpace=wrap;html=1;align=center;fillColor=#ffcccc;strokeColor=#36393d;fontColor=#000000;" vertex="1" parent="1">
          <mxGeometry x="180" y="620" width="70" height="30" as="geometry" />
        </mxCell>
        <mxCell id="anM-W0v6J8RK6cMc1XP8-64" style="edgeStyle=orthogonalEdgeStyle;rounded=0;orthogonalLoop=1;jettySize=auto;html=1;entryX=0;entryY=1;entryDx=0;entryDy=0;endArrow=none;endFill=0;" edge="1" parent="1" source="anM-W0v6J8RK6cMc1XP8-61" target="anM-W0v6J8RK6cMc1XP8-56">
          <mxGeometry relative="1" as="geometry" />
        </mxCell>
        <mxCell id="anM-W0v6J8RK6cMc1XP8-61" value="Koha e nisjes dhe e mberritjes" style="ellipse;shape=doubleEllipse;margin=3;whiteSpace=wrap;html=1;align=center;fillColor=#ffcccc;strokeColor=#36393d;fontColor=#000000;" vertex="1" parent="1">
          <mxGeometry x="10" y="670" width="100" height="40" as="geometry" />
        </mxCell>
        <mxCell id="anM-W0v6J8RK6cMc1XP8-63" style="edgeStyle=orthogonalEdgeStyle;rounded=0;orthogonalLoop=1;jettySize=auto;html=1;entryX=0.75;entryY=1;entryDx=0;entryDy=0;endArrow=none;endFill=0;" edge="1" parent="1" source="anM-W0v6J8RK6cMc1XP8-62" target="anM-W0v6J8RK6cMc1XP8-56">
          <mxGeometry relative="1" as="geometry" />
        </mxCell>
        <mxCell id="anM-W0v6J8RK6cMc1XP8-62" value="Kohezgjatja" style="ellipse;whiteSpace=wrap;html=1;align=center;dashed=1;fillColor=#ffcccc;strokeColor=#36393d;fontColor=#000000;" vertex="1" parent="1">
          <mxGeometry x="135" y="680" width="85" height="30" as="geometry" />
        </mxCell>
        <mxCell id="anM-W0v6J8RK6cMc1XP8-69" style="edgeStyle=orthogonalEdgeStyle;rounded=0;orthogonalLoop=1;jettySize=auto;html=1;entryX=0.5;entryY=0;entryDx=0;entryDy=0;endArrow=none;endFill=0;" edge="1" parent="1" source="anM-W0v6J8RK6cMc1XP8-68" target="anM-W0v6J8RK6cMc1XP8-56">
          <mxGeometry relative="1" as="geometry" />
        </mxCell>
        <mxCell id="anM-W0v6J8RK6cMc1XP8-70" style="edgeStyle=orthogonalEdgeStyle;rounded=0;orthogonalLoop=1;jettySize=auto;html=1;entryX=0.5;entryY=1;entryDx=0;entryDy=0;endArrow=none;endFill=0;" edge="1" parent="1" source="anM-W0v6J8RK6cMc1XP8-68" target="anM-W0v6J8RK6cMc1XP8-42">
          <mxGeometry relative="1" as="geometry" />
        </mxCell>
        <mxCell id="anM-W0v6J8RK6cMc1XP8-68" value="Bëhen" style="shape=rhombus;perimeter=rhombusPerimeter;whiteSpace=wrap;html=1;align=center;fillColor=#f8cecc;gradientColor=#ea6b66;strokeColor=#b85450;fontColor=#000000;" vertex="1" parent="1">
          <mxGeometry x="80" y="440" width="100" height="40" as="geometry" />
        </mxCell>
        <mxCell id="anM-W0v6J8RK6cMc1XP8-71" value="*" style="text;html=1;align=center;verticalAlign=middle;resizable=0;points=[];autosize=1;strokeColor=none;fillColor=none;" vertex="1" parent="1">
          <mxGeometry x="110" y="330" width="30" height="30" as="geometry" />
        </mxCell>
        <mxCell id="anM-W0v6J8RK6cMc1XP8-72" value="*" style="text;html=1;align=center;verticalAlign=middle;resizable=0;points=[];autosize=1;strokeColor=none;fillColor=none;" vertex="1" parent="1">
          <mxGeometry x="120" y="550" width="30" height="30" as="geometry" />
        </mxCell>
        <mxCell id="anM-W0v6J8RK6cMc1XP8-74" value="Pagesa" style="shape=ext;margin=3;double=1;whiteSpace=wrap;html=1;align=center;fillColor=#fad9d5;strokeColor=#ae4132;fontColor=#000000;" vertex="1" parent="1">
          <mxGeometry x="-300" y="120" width="100" height="40" as="geometry" />
        </mxCell>
        <mxCell id="anM-W0v6J8RK6cMc1XP8-76" style="edgeStyle=orthogonalEdgeStyle;rounded=0;orthogonalLoop=1;jettySize=auto;html=1;entryX=1;entryY=0.5;entryDx=0;entryDy=0;endArrow=none;endFill=0;fillColor=#e51400;strokeColor=#B20000;" edge="1" parent="1" source="anM-W0v6J8RK6cMc1XP8-75" target="anM-W0v6J8RK6cMc1XP8-74">
          <mxGeometry relative="1" as="geometry" />
        </mxCell>
        <mxCell id="anM-W0v6J8RK6cMc1XP8-77" style="edgeStyle=orthogonalEdgeStyle;rounded=0;orthogonalLoop=1;jettySize=auto;html=1;entryX=0;entryY=0.75;entryDx=0;entryDy=0;endArrow=none;endFill=0;fillColor=#e51400;strokeColor=#B20000;" edge="1" parent="1" source="anM-W0v6J8RK6cMc1XP8-75" target="anM-W0v6J8RK6cMc1XP8-1">
          <mxGeometry relative="1" as="geometry" />
        </mxCell>
        <mxCell id="anM-W0v6J8RK6cMc1XP8-75" value="Bënë" style="shape=rhombus;double=1;perimeter=rhombusPerimeter;whiteSpace=wrap;html=1;align=center;fillColor=#f8cecc;gradientColor=#ea6b66;strokeColor=#b85450;fontColor=#000000;" vertex="1" parent="1">
          <mxGeometry x="-170" y="120" width="90" height="40" as="geometry" />
        </mxCell>
        <mxCell id="anM-W0v6J8RK6cMc1XP8-78" value="*" style="text;html=1;align=center;verticalAlign=middle;resizable=0;points=[];autosize=1;strokeColor=none;fillColor=none;" vertex="1" parent="1">
          <mxGeometry x="-210" y="130" width="30" height="30" as="geometry" />
        </mxCell>
        <mxCell id="anM-W0v6J8RK6cMc1XP8-79" value="1" style="text;html=1;align=center;verticalAlign=middle;resizable=0;points=[];autosize=1;strokeColor=none;fillColor=none;" vertex="1" parent="1">
          <mxGeometry x="60" y="140" width="30" height="30" as="geometry" />
        </mxCell>
        <mxCell id="anM-W0v6J8RK6cMc1XP8-85" style="edgeStyle=orthogonalEdgeStyle;rounded=0;orthogonalLoop=1;jettySize=auto;html=1;entryX=0;entryY=0.25;entryDx=0;entryDy=0;endArrow=none;endFill=0;" edge="1" parent="1" source="anM-W0v6J8RK6cMc1XP8-80" target="anM-W0v6J8RK6cMc1XP8-74">
          <mxGeometry relative="1" as="geometry" />
        </mxCell>
        <mxCell id="anM-W0v6J8RK6cMc1XP8-80" value="&lt;span style=&quot;border-bottom: 1px dotted&quot;&gt;ID&lt;/span&gt;" style="ellipse;whiteSpace=wrap;html=1;align=center;fillColor=#e6d0de;gradientColor=#d5739d;strokeColor=#996185;fontColor=#000000;" vertex="1" parent="1">
          <mxGeometry x="-340" y="85" width="70" height="20" as="geometry" />
        </mxCell>
        <mxCell id="anM-W0v6J8RK6cMc1XP8-84" style="edgeStyle=orthogonalEdgeStyle;rounded=0;orthogonalLoop=1;jettySize=auto;html=1;entryX=1;entryY=0;entryDx=0;entryDy=0;endArrow=none;endFill=0;" edge="1" parent="1" source="anM-W0v6J8RK6cMc1XP8-81" target="anM-W0v6J8RK6cMc1XP8-74">
          <mxGeometry relative="1" as="geometry" />
        </mxCell>
        <mxCell id="anM-W0v6J8RK6cMc1XP8-81" value="Data e pageses" style="ellipse;whiteSpace=wrap;html=1;align=center;fillColor=#e6d0de;gradientColor=#d5739d;strokeColor=#996185;fontColor=#000000;" vertex="1" parent="1">
          <mxGeometry x="-230" y="70" width="70" height="30" as="geometry" />
        </mxCell>
        <mxCell id="anM-W0v6J8RK6cMc1XP8-87" style="edgeStyle=orthogonalEdgeStyle;rounded=0;orthogonalLoop=1;jettySize=auto;html=1;endArrow=none;endFill=0;" edge="1" parent="1" source="anM-W0v6J8RK6cMc1XP8-82">
          <mxGeometry relative="1" as="geometry">
            <mxPoint x="-260" y="160" as="targetPoint" />
          </mxGeometry>
        </mxCell>
        <mxCell id="anM-W0v6J8RK6cMc1XP8-82" value="Shuma e pageses" style="ellipse;whiteSpace=wrap;html=1;align=center;fillColor=#e6d0de;gradientColor=#d5739d;strokeColor=#996185;fontColor=#000000;" vertex="1" parent="1">
          <mxGeometry x="-300" y="180" width="80" height="30" as="geometry" />
        </mxCell>
        <mxCell id="anM-W0v6J8RK6cMc1XP8-89" value="Banka" style="whiteSpace=wrap;html=1;align=center;fillColor=#fff2cc;gradientColor=#ffd966;strokeColor=#d6b656;fontColor=#000000;" vertex="1" parent="1">
          <mxGeometry x="-560" y="230" width="100" height="40" as="geometry" />
        </mxCell>
        <mxCell id="anM-W0v6J8RK6cMc1XP8-98" style="edgeStyle=orthogonalEdgeStyle;rounded=0;orthogonalLoop=1;jettySize=auto;html=1;entryX=0.25;entryY=0;entryDx=0;entryDy=0;endArrow=none;endFill=0;" edge="1" parent="1" source="anM-W0v6J8RK6cMc1XP8-90" target="anM-W0v6J8RK6cMc1XP8-89">
          <mxGeometry relative="1" as="geometry" />
        </mxCell>
        <mxCell id="anM-W0v6J8RK6cMc1XP8-90" value="Numri kontaktues" style="ellipse;whiteSpace=wrap;html=1;align=center;fillColor=#ffcd28;gradientColor=#ffa500;strokeColor=#d79b00;fontColor=#000000;" vertex="1" parent="1">
          <mxGeometry x="-670" y="177.5" width="90" height="35" as="geometry" />
        </mxCell>
        <mxCell id="anM-W0v6J8RK6cMc1XP8-96" style="edgeStyle=orthogonalEdgeStyle;rounded=0;orthogonalLoop=1;jettySize=auto;html=1;entryX=0;entryY=0.5;entryDx=0;entryDy=0;endArrow=none;endFill=0;" edge="1" parent="1" source="anM-W0v6J8RK6cMc1XP8-91" target="anM-W0v6J8RK6cMc1XP8-89">
          <mxGeometry relative="1" as="geometry" />
        </mxCell>
        <mxCell id="anM-W0v6J8RK6cMc1XP8-91" value="ID" style="ellipse;whiteSpace=wrap;html=1;align=center;fontStyle=4;fillColor=#ffcd28;gradientColor=#ffa500;strokeColor=#d79b00;fontColor=#000000;" vertex="1" parent="1">
          <mxGeometry x="-670" y="250" width="70" height="30" as="geometry" />
        </mxCell>
        <mxCell id="anM-W0v6J8RK6cMc1XP8-95" style="edgeStyle=orthogonalEdgeStyle;rounded=0;orthogonalLoop=1;jettySize=auto;html=1;entryX=0.25;entryY=1;entryDx=0;entryDy=0;endArrow=none;endFill=0;" edge="1" parent="1" source="anM-W0v6J8RK6cMc1XP8-92" target="anM-W0v6J8RK6cMc1XP8-89">
          <mxGeometry relative="1" as="geometry" />
        </mxCell>
        <mxCell id="anM-W0v6J8RK6cMc1XP8-92" value="Adresa" style="ellipse;whiteSpace=wrap;html=1;align=center;fillColor=#ffcd28;gradientColor=#ffa500;strokeColor=#d79b00;fontColor=#000000;" vertex="1" parent="1">
          <mxGeometry x="-620" y="300" width="70" height="20" as="geometry" />
        </mxCell>
        <mxCell id="anM-W0v6J8RK6cMc1XP8-99" value="Shteti" style="ellipse;whiteSpace=wrap;html=1;align=center;fillColor=#ffcd28;gradientColor=#ffa500;strokeColor=#d79b00;fontColor=#000000;" vertex="1" parent="1">
          <mxGeometry x="-700" y="320" width="70" height="30" as="geometry" />
        </mxCell>
        <mxCell id="anM-W0v6J8RK6cMc1XP8-104" style="edgeStyle=orthogonalEdgeStyle;rounded=0;orthogonalLoop=1;jettySize=auto;html=1;entryX=0.5;entryY=1;entryDx=0;entryDy=0;endArrow=none;endFill=0;" edge="1" parent="1" source="anM-W0v6J8RK6cMc1XP8-100" target="anM-W0v6J8RK6cMc1XP8-92">
          <mxGeometry relative="1" as="geometry" />
        </mxCell>
        <mxCell id="anM-W0v6J8RK6cMc1XP8-100" value="ZIP Code" style="ellipse;whiteSpace=wrap;html=1;align=center;fillColor=#ffcd28;gradientColor=#ffa500;strokeColor=#d79b00;fontColor=#000000;" vertex="1" parent="1">
          <mxGeometry x="-630" y="340" width="70" height="30" as="geometry" />
        </mxCell>
        <mxCell id="anM-W0v6J8RK6cMc1XP8-105" style="edgeStyle=orthogonalEdgeStyle;rounded=0;orthogonalLoop=1;jettySize=auto;html=1;entryX=1;entryY=1;entryDx=0;entryDy=0;endArrow=none;endFill=0;" edge="1" parent="1" source="anM-W0v6J8RK6cMc1XP8-102" target="anM-W0v6J8RK6cMc1XP8-92">
          <mxGeometry relative="1" as="geometry" />
        </mxCell>
        <mxCell id="anM-W0v6J8RK6cMc1XP8-102" value="Rruga" style="ellipse;whiteSpace=wrap;html=1;align=center;fillColor=#ffcd28;gradientColor=#ffa500;strokeColor=#d79b00;fontColor=#000000;" vertex="1" parent="1">
          <mxGeometry x="-540" y="335" width="70" height="25" as="geometry" />
        </mxCell>
        <mxCell id="anM-W0v6J8RK6cMc1XP8-103" style="edgeStyle=orthogonalEdgeStyle;rounded=0;orthogonalLoop=1;jettySize=auto;html=1;entryX=0.143;entryY=0.5;entryDx=0;entryDy=0;entryPerimeter=0;endArrow=none;endFill=0;" edge="1" parent="1" source="anM-W0v6J8RK6cMc1XP8-99" target="anM-W0v6J8RK6cMc1XP8-92">
          <mxGeometry relative="1" as="geometry" />
        </mxCell>
        <mxCell id="anM-W0v6J8RK6cMc1XP8-107" style="edgeStyle=orthogonalEdgeStyle;rounded=0;orthogonalLoop=1;jettySize=auto;html=1;entryX=0;entryY=1;entryDx=0;entryDy=0;endArrow=none;endFill=0;" edge="1" parent="1" source="anM-W0v6J8RK6cMc1XP8-106" target="anM-W0v6J8RK6cMc1XP8-88">
          <mxGeometry relative="1" as="geometry" />
        </mxCell>
        <mxCell id="anM-W0v6J8RK6cMc1XP8-108" style="edgeStyle=orthogonalEdgeStyle;rounded=0;orthogonalLoop=1;jettySize=auto;html=1;entryX=1;entryY=0.5;entryDx=0;entryDy=0;endArrow=none;endFill=0;" edge="1" parent="1" source="anM-W0v6J8RK6cMc1XP8-106" target="anM-W0v6J8RK6cMc1XP8-89">
          <mxGeometry relative="1" as="geometry" />
        </mxCell>
        <mxCell id="anM-W0v6J8RK6cMc1XP8-106" value="Konfirmon" style="shape=rhombus;perimeter=rhombusPerimeter;whiteSpace=wrap;html=1;align=center;fillColor=#f5f5f5;gradientColor=#b3b3b3;strokeColor=#666666;fontColor=#000000;" vertex="1" parent="1">
          <mxGeometry x="-435" y="240" width="95" height="50" as="geometry" />
        </mxCell>
        <mxCell id="anM-W0v6J8RK6cMc1XP8-109" value="1" style="text;html=1;align=center;verticalAlign=middle;resizable=0;points=[];autosize=1;strokeColor=none;fillColor=none;" vertex="1" parent="1">
          <mxGeometry x="-380" y="200" width="30" height="30" as="geometry" />
        </mxCell>
        <mxCell id="anM-W0v6J8RK6cMc1XP8-110" value="1" style="text;html=1;align=center;verticalAlign=middle;resizable=0;points=[];autosize=1;strokeColor=none;fillColor=none;" vertex="1" parent="1">
          <mxGeometry x="-470" y="230" width="30" height="30" as="geometry" />
        </mxCell>
        <mxCell id="anM-W0v6J8RK6cMc1XP8-112" style="edgeStyle=orthogonalEdgeStyle;rounded=0;orthogonalLoop=1;jettySize=auto;html=1;entryX=0.75;entryY=1;entryDx=0;entryDy=0;endArrow=none;endFill=0;fillColor=#008a00;strokeColor=#005700;" edge="1" parent="1" source="anM-W0v6J8RK6cMc1XP8-111" target="anM-W0v6J8RK6cMc1XP8-89">
          <mxGeometry relative="1" as="geometry" />
        </mxCell>
        <mxCell id="anM-W0v6J8RK6cMc1XP8-113" style="edgeStyle=orthogonalEdgeStyle;rounded=0;orthogonalLoop=1;jettySize=auto;html=1;entryX=0.25;entryY=0;entryDx=0;entryDy=0;endArrow=none;endFill=0;fillColor=#008a00;strokeColor=#005700;" edge="1" parent="1" source="anM-W0v6J8RK6cMc1XP8-111" target="anM-W0v6J8RK6cMc1XP8-1">
          <mxGeometry relative="1" as="geometry" />
        </mxCell>
        <mxCell id="anM-W0v6J8RK6cMc1XP8-111" value="Kontakton" style="shape=rhombus;perimeter=rhombusPerimeter;whiteSpace=wrap;html=1;align=center;fillColor=#dae8fc;gradientColor=#7ea6e0;strokeColor=#6c8ebf;fontColor=#000000;" vertex="1" parent="1">
          <mxGeometry x="-350" y="315" width="90" height="45" as="geometry" />
        </mxCell>
        <mxCell id="anM-W0v6J8RK6cMc1XP8-114" value="1" style="text;html=1;align=center;verticalAlign=middle;resizable=0;points=[];autosize=1;strokeColor=none;fillColor=none;" vertex="1" parent="1">
          <mxGeometry x="-490" y="260" width="30" height="30" as="geometry" />
        </mxCell>
        <mxCell id="anM-W0v6J8RK6cMc1XP8-115" value="*" style="text;html=1;align=center;verticalAlign=middle;resizable=0;points=[];autosize=1;strokeColor=none;fillColor=none;" vertex="1" parent="1">
          <mxGeometry x="95" y="100" width="30" height="30" as="geometry" />
        </mxCell>
        <mxCell id="anM-W0v6J8RK6cMc1XP8-127" style="edgeStyle=orthogonalEdgeStyle;rounded=0;orthogonalLoop=1;jettySize=auto;html=1;endArrow=none;endFill=0;" edge="1" parent="1" source="anM-W0v6J8RK6cMc1XP8-116" target="anM-W0v6J8RK6cMc1XP8-117">
          <mxGeometry relative="1" as="geometry" />
        </mxCell>
        <mxCell id="anM-W0v6J8RK6cMc1XP8-128" style="edgeStyle=orthogonalEdgeStyle;rounded=0;orthogonalLoop=1;jettySize=auto;html=1;entryX=0;entryY=1;entryDx=0;entryDy=0;endArrow=none;endFill=0;" edge="1" parent="1" source="anM-W0v6J8RK6cMc1XP8-116" target="anM-W0v6J8RK6cMc1XP8-118">
          <mxGeometry relative="1" as="geometry" />
        </mxCell>
        <mxCell id="anM-W0v6J8RK6cMc1XP8-129" style="edgeStyle=orthogonalEdgeStyle;rounded=0;orthogonalLoop=1;jettySize=auto;html=1;entryX=0;entryY=0.5;entryDx=0;entryDy=0;endArrow=none;endFill=0;" edge="1" parent="1" source="anM-W0v6J8RK6cMc1XP8-116" target="anM-W0v6J8RK6cMc1XP8-119">
          <mxGeometry relative="1" as="geometry" />
        </mxCell>
        <mxCell id="anM-W0v6J8RK6cMc1XP8-116" value="Aeroplani" style="whiteSpace=wrap;html=1;align=center;fillColor=#008a00;fontColor=#ffffff;strokeColor=#005700;" vertex="1" parent="1">
          <mxGeometry x="700" y="300" width="100" height="40" as="geometry" />
        </mxCell>
        <mxCell id="anM-W0v6J8RK6cMc1XP8-117" value="Pronari" style="ellipse;whiteSpace=wrap;html=1;align=center;fillColor=#60a917;fontColor=#ffffff;strokeColor=#2D7600;" vertex="1" parent="1">
          <mxGeometry x="770" y="260" width="70" height="20" as="geometry" />
        </mxCell>
        <mxCell id="anM-W0v6J8RK6cMc1XP8-118" value="ID" style="ellipse;whiteSpace=wrap;html=1;align=center;fontStyle=4;fillColor=#60a917;fontColor=#ffffff;strokeColor=#2D7600;" vertex="1" parent="1">
          <mxGeometry x="820" y="295" width="60" height="20" as="geometry" />
        </mxCell>
        <mxCell id="anM-W0v6J8RK6cMc1XP8-119" value="Lloji&amp;nbsp;" style="ellipse;whiteSpace=wrap;html=1;align=center;fillColor=#60a917;fontColor=#ffffff;strokeColor=#2D7600;" vertex="1" parent="1">
          <mxGeometry x="820" y="327.5" width="60" height="22.5" as="geometry" />
        </mxCell>
        <mxCell id="anM-W0v6J8RK6cMc1XP8-130" style="edgeStyle=orthogonalEdgeStyle;rounded=0;orthogonalLoop=1;jettySize=auto;html=1;entryX=1;entryY=1;entryDx=0;entryDy=0;endArrow=none;endFill=0;" edge="1" parent="1" source="anM-W0v6J8RK6cMc1XP8-120" target="anM-W0v6J8RK6cMc1XP8-116">
          <mxGeometry relative="1" as="geometry" />
        </mxCell>
        <mxCell id="anM-W0v6J8RK6cMc1XP8-120" value="Viti i prodhimit" style="ellipse;whiteSpace=wrap;html=1;align=center;fillColor=#60a917;fontColor=#ffffff;strokeColor=#2D7600;" vertex="1" parent="1">
          <mxGeometry x="770" y="360" width="80" height="30" as="geometry" />
        </mxCell>
        <mxCell id="anM-W0v6J8RK6cMc1XP8-131" value="Ulesja" style="shape=ext;margin=3;double=1;whiteSpace=wrap;html=1;align=center;fillColor=#76608a;fontColor=#ffffff;strokeColor=#432D57;" vertex="1" parent="1">
          <mxGeometry x="1030" y="305" width="100" height="40" as="geometry" />
        </mxCell>
        <mxCell id="anM-W0v6J8RK6cMc1XP8-133" style="edgeStyle=orthogonalEdgeStyle;rounded=0;orthogonalLoop=1;jettySize=auto;html=1;entryX=1;entryY=0;entryDx=0;entryDy=0;endArrow=none;endFill=0;fillColor=#a20025;strokeColor=#6F0000;" edge="1" parent="1" source="anM-W0v6J8RK6cMc1XP8-132" target="anM-W0v6J8RK6cMc1XP8-116">
          <mxGeometry relative="1" as="geometry" />
        </mxCell>
        <mxCell id="anM-W0v6J8RK6cMc1XP8-134" style="edgeStyle=orthogonalEdgeStyle;rounded=0;orthogonalLoop=1;jettySize=auto;html=1;endArrow=none;endFill=0;fillColor=#a20025;strokeColor=#6F0000;" edge="1" parent="1" source="anM-W0v6J8RK6cMc1XP8-132" target="anM-W0v6J8RK6cMc1XP8-131">
          <mxGeometry relative="1" as="geometry" />
        </mxCell>
        <mxCell id="anM-W0v6J8RK6cMc1XP8-132" value="Ka" style="shape=rhombus;double=1;perimeter=rhombusPerimeter;whiteSpace=wrap;html=1;align=center;fillColor=#a0522d;fontColor=#ffffff;strokeColor=#6D1F00;" vertex="1" parent="1">
          <mxGeometry x="900" y="305" width="90" height="40" as="geometry" />
        </mxCell>
        <mxCell id="anM-W0v6J8RK6cMc1XP8-135" value="*" style="text;html=1;align=center;verticalAlign=middle;resizable=0;points=[];autosize=1;strokeColor=none;fillColor=none;" vertex="1" parent="1">
          <mxGeometry x="1010" y="310" width="30" height="30" as="geometry" />
        </mxCell>
        <mxCell id="anM-W0v6J8RK6cMc1XP8-136" value="1" style="text;html=1;align=center;verticalAlign=middle;resizable=0;points=[];autosize=1;strokeColor=none;fillColor=none;" vertex="1" parent="1">
          <mxGeometry x="790" y="280" width="30" height="30" as="geometry" />
        </mxCell>
        <mxCell id="anM-W0v6J8RK6cMc1XP8-143" style="edgeStyle=orthogonalEdgeStyle;rounded=0;orthogonalLoop=1;jettySize=auto;html=1;entryX=0.75;entryY=0;entryDx=0;entryDy=0;endArrow=none;endFill=0;" edge="1" parent="1" source="anM-W0v6J8RK6cMc1XP8-137" target="anM-W0v6J8RK6cMc1XP8-131">
          <mxGeometry relative="1" as="geometry" />
        </mxCell>
        <mxCell id="anM-W0v6J8RK6cMc1XP8-137" value="&lt;span style=&quot;border-bottom: 1px dotted&quot;&gt;ID&lt;/span&gt;" style="ellipse;whiteSpace=wrap;html=1;align=center;fillColor=#647687;fontColor=#ffffff;strokeColor=#314354;" vertex="1" parent="1">
          <mxGeometry x="1090" y="260" width="70" height="20" as="geometry" />
        </mxCell>
        <mxCell id="anM-W0v6J8RK6cMc1XP8-142" style="edgeStyle=orthogonalEdgeStyle;rounded=0;orthogonalLoop=1;jettySize=auto;html=1;entryX=1;entryY=0.25;entryDx=0;entryDy=0;endArrow=none;endFill=0;" edge="1" parent="1" source="anM-W0v6J8RK6cMc1XP8-138" target="anM-W0v6J8RK6cMc1XP8-131">
          <mxGeometry relative="1" as="geometry" />
        </mxCell>
        <mxCell id="anM-W0v6J8RK6cMc1XP8-138" value="Klasa" style="ellipse;whiteSpace=wrap;html=1;align=center;fillColor=#647687;fontColor=#ffffff;strokeColor=#314354;" vertex="1" parent="1">
          <mxGeometry x="1150" y="305" width="80" height="30" as="geometry" />
        </mxCell>
        <mxCell id="anM-W0v6J8RK6cMc1XP8-141" style="edgeStyle=orthogonalEdgeStyle;rounded=0;orthogonalLoop=1;jettySize=auto;html=1;entryX=1;entryY=1;entryDx=0;entryDy=0;endArrow=none;endFill=0;" edge="1" parent="1" source="anM-W0v6J8RK6cMc1XP8-139" target="anM-W0v6J8RK6cMc1XP8-131">
          <mxGeometry relative="1" as="geometry" />
        </mxCell>
        <mxCell id="anM-W0v6J8RK6cMc1XP8-139" value="Vendi" style="ellipse;whiteSpace=wrap;html=1;align=center;fillColor=#647687;fontColor=#ffffff;strokeColor=#314354;" vertex="1" parent="1">
          <mxGeometry x="1150" y="370" width="80" height="30" as="geometry" />
        </mxCell>
        <mxCell id="anM-W0v6J8RK6cMc1XP8-144" style="edgeStyle=orthogonalEdgeStyle;rounded=0;orthogonalLoop=1;jettySize=auto;html=1;entryX=1;entryY=0.25;entryDx=0;entryDy=0;endArrow=none;endFill=0;" edge="1" parent="1" source="anM-W0v6J8RK6cMc1XP8-140" target="anM-W0v6J8RK6cMc1XP8-131">
          <mxGeometry relative="1" as="geometry" />
        </mxCell>
        <mxCell id="anM-W0v6J8RK6cMc1XP8-140" value="Lloji" style="ellipse;whiteSpace=wrap;html=1;align=center;dashed=1;fillColor=#647687;fontColor=#ffffff;strokeColor=#314354;" vertex="1" parent="1">
          <mxGeometry x="1210" y="255" width="80" height="35" as="geometry" />
        </mxCell>
        <mxCell id="anM-W0v6J8RK6cMc1XP8-146" style="edgeStyle=orthogonalEdgeStyle;rounded=0;orthogonalLoop=1;jettySize=auto;html=1;entryX=0.75;entryY=1;entryDx=0;entryDy=0;endArrow=none;endFill=0;" edge="1" parent="1" source="anM-W0v6J8RK6cMc1XP8-145" target="anM-W0v6J8RK6cMc1XP8-1">
          <mxGeometry relative="1" as="geometry">
            <mxPoint x="290" y="180" as="targetPoint" />
          </mxGeometry>
        </mxCell>
        <mxCell id="anM-W0v6J8RK6cMc1XP8-147" style="edgeStyle=orthogonalEdgeStyle;rounded=0;orthogonalLoop=1;jettySize=auto;html=1;entryX=0.25;entryY=0;entryDx=0;entryDy=0;endArrow=none;endFill=0;" edge="1" parent="1" source="anM-W0v6J8RK6cMc1XP8-145" target="anM-W0v6J8RK6cMc1XP8-116">
          <mxGeometry relative="1" as="geometry" />
        </mxCell>
        <mxCell id="anM-W0v6J8RK6cMc1XP8-145" value="Ka" style="shape=rhombus;perimeter=rhombusPerimeter;whiteSpace=wrap;html=1;align=center;fillColor=#fa6800;fontColor=#000000;strokeColor=#C73500;" vertex="1" parent="1">
          <mxGeometry x="450" y="170" width="100" height="50" as="geometry" />
        </mxCell>
        <mxCell id="anM-W0v6J8RK6cMc1XP8-148" value="1" style="text;html=1;align=center;verticalAlign=middle;resizable=0;points=[];autosize=1;strokeColor=none;fillColor=none;" vertex="1" parent="1">
          <mxGeometry x="720" y="275" width="30" height="30" as="geometry" />
        </mxCell>
        <mxCell id="anM-W0v6J8RK6cMc1XP8-149" value="*" style="text;html=1;align=center;verticalAlign=middle;resizable=0;points=[];autosize=1;strokeColor=none;fillColor=none;" vertex="1" parent="1">
          <mxGeometry x="135" y="150" width="30" height="30" as="geometry" />
        </mxCell>
        <mxCell id="anM-W0v6J8RK6cMc1XP8-151" style="edgeStyle=orthogonalEdgeStyle;rounded=0;orthogonalLoop=1;jettySize=auto;html=1;entryX=1;entryY=0.25;entryDx=0;entryDy=0;endArrow=none;endFill=0;" edge="1" parent="1" source="anM-W0v6J8RK6cMc1XP8-150" target="anM-W0v6J8RK6cMc1XP8-56">
          <mxGeometry relative="1" as="geometry" />
        </mxCell>
        <mxCell id="anM-W0v6J8RK6cMc1XP8-152" style="edgeStyle=orthogonalEdgeStyle;rounded=0;orthogonalLoop=1;jettySize=auto;html=1;entryX=0.5;entryY=1;entryDx=0;entryDy=0;endArrow=none;endFill=0;" edge="1" parent="1" source="anM-W0v6J8RK6cMc1XP8-150" target="anM-W0v6J8RK6cMc1XP8-116">
          <mxGeometry relative="1" as="geometry" />
        </mxCell>
        <mxCell id="anM-W0v6J8RK6cMc1XP8-150" value="Bënë" style="shape=rhombus;perimeter=rhombusPerimeter;whiteSpace=wrap;html=1;align=center;fillColor=#a0522d;fontColor=#ffffff;strokeColor=#6D1F00;" vertex="1" parent="1">
          <mxGeometry x="450" y="520" width="100" height="50" as="geometry" />
        </mxCell>
        <mxCell id="anM-W0v6J8RK6cMc1XP8-153" value="1" style="text;html=1;align=center;verticalAlign=middle;resizable=0;points=[];autosize=1;strokeColor=none;fillColor=none;" vertex="1" parent="1">
          <mxGeometry x="180" y="560" width="30" height="30" as="geometry" />
        </mxCell>
        <mxCell id="anM-W0v6J8RK6cMc1XP8-155" value="1" style="text;html=1;align=center;verticalAlign=middle;resizable=0;points=[];autosize=1;strokeColor=none;fillColor=none;" vertex="1" parent="1">
          <mxGeometry x="725" y="338" width="30" height="30" as="geometry" />
        </mxCell>
        <mxCell id="anM-W0v6J8RK6cMc1XP8-159" style="edgeStyle=orthogonalEdgeStyle;rounded=0;orthogonalLoop=1;jettySize=auto;html=1;endArrow=none;endFill=0;fillColor=#e51400;strokeColor=#B20000;" edge="1" parent="1" source="anM-W0v6J8RK6cMc1XP8-156" target="anM-W0v6J8RK6cMc1XP8-157">
          <mxGeometry relative="1" as="geometry" />
        </mxCell>
        <mxCell id="anM-W0v6J8RK6cMc1XP8-156" value="Ushqimi" style="shape=ext;margin=3;double=1;whiteSpace=wrap;html=1;align=center;fillColor=#647687;fontColor=#ffffff;strokeColor=#314354;" vertex="1" parent="1">
          <mxGeometry x="-290" y="430" width="100" height="40" as="geometry" />
        </mxCell>
        <mxCell id="anM-W0v6J8RK6cMc1XP8-158" style="edgeStyle=orthogonalEdgeStyle;rounded=0;orthogonalLoop=1;jettySize=auto;html=1;entryX=0.25;entryY=0;entryDx=0;entryDy=0;endArrow=none;endFill=0;fillColor=#e51400;strokeColor=#B20000;" edge="1" parent="1" source="anM-W0v6J8RK6cMc1XP8-157" target="anM-W0v6J8RK6cMc1XP8-42">
          <mxGeometry relative="1" as="geometry" />
        </mxCell>
        <mxCell id="anM-W0v6J8RK6cMc1XP8-157" value="Perfshin" style="shape=rhombus;double=1;perimeter=rhombusPerimeter;whiteSpace=wrap;html=1;align=center;" vertex="1" parent="1">
          <mxGeometry x="-120" y="420" width="120" height="60" as="geometry" />
        </mxCell>
        <mxCell id="anM-W0v6J8RK6cMc1XP8-170" style="edgeStyle=orthogonalEdgeStyle;rounded=0;orthogonalLoop=1;jettySize=auto;html=1;entryX=0;entryY=0.5;entryDx=0;entryDy=0;endArrow=none;endFill=0;" edge="1" parent="1" source="anM-W0v6J8RK6cMc1XP8-160" target="anM-W0v6J8RK6cMc1XP8-156">
          <mxGeometry relative="1" as="geometry" />
        </mxCell>
        <mxCell id="anM-W0v6J8RK6cMc1XP8-160" value="Lloji" style="ellipse;whiteSpace=wrap;html=1;align=center;fillColor=#6d8764;fontColor=#ffffff;strokeColor=#3A5431;" vertex="1" parent="1">
          <mxGeometry x="-425" y="430" width="85" height="30" as="geometry" />
        </mxCell>
        <mxCell id="anM-W0v6J8RK6cMc1XP8-171" style="edgeStyle=orthogonalEdgeStyle;rounded=0;orthogonalLoop=1;jettySize=auto;html=1;entryX=0.25;entryY=1;entryDx=0;entryDy=0;endArrow=none;endFill=0;" edge="1" parent="1" source="anM-W0v6J8RK6cMc1XP8-161" target="anM-W0v6J8RK6cMc1XP8-156">
          <mxGeometry relative="1" as="geometry" />
        </mxCell>
        <mxCell id="anM-W0v6J8RK6cMc1XP8-161" value="Data e prodhimit" style="ellipse;whiteSpace=wrap;html=1;align=center;fillColor=#6d8764;fontColor=#ffffff;strokeColor=#3A5431;" vertex="1" parent="1">
          <mxGeometry x="-425" y="480" width="85" height="30" as="geometry" />
        </mxCell>
        <mxCell id="anM-W0v6J8RK6cMc1XP8-165" value="Permbajtja" style="ellipse;shape=doubleEllipse;margin=3;whiteSpace=wrap;html=1;align=center;fillColor=#6d8764;fontColor=#ffffff;strokeColor=#3A5431;" vertex="1" parent="1">
          <mxGeometry x="-390" y="530" width="90" height="30" as="geometry" />
        </mxCell>
        <mxCell id="anM-W0v6J8RK6cMc1XP8-173" style="edgeStyle=orthogonalEdgeStyle;rounded=0;orthogonalLoop=1;jettySize=auto;html=1;entryX=0.5;entryY=1;entryDx=0;entryDy=0;endArrow=none;endFill=0;" edge="1" parent="1" source="anM-W0v6J8RK6cMc1XP8-167" target="anM-W0v6J8RK6cMc1XP8-156">
          <mxGeometry relative="1" as="geometry" />
        </mxCell>
        <mxCell id="anM-W0v6J8RK6cMc1XP8-167" value="Data e skadimit" style="ellipse;whiteSpace=wrap;html=1;align=center;fillColor=#6d8764;fontColor=#ffffff;strokeColor=#3A5431;" vertex="1" parent="1">
          <mxGeometry x="-285" y="525" width="90" height="40" as="geometry" />
        </mxCell>
        <mxCell id="anM-W0v6J8RK6cMc1XP8-174" style="edgeStyle=orthogonalEdgeStyle;rounded=0;orthogonalLoop=1;jettySize=auto;html=1;entryX=1;entryY=1;entryDx=0;entryDy=0;endArrow=none;endFill=0;" edge="1" parent="1" source="anM-W0v6J8RK6cMc1XP8-169" target="anM-W0v6J8RK6cMc1XP8-156">
          <mxGeometry relative="1" as="geometry" />
        </mxCell>
        <mxCell id="anM-W0v6J8RK6cMc1XP8-169" value="&lt;span style=&quot;border-bottom: 1px dotted&quot;&gt;Emri&lt;/span&gt;" style="ellipse;whiteSpace=wrap;html=1;align=center;fillColor=#6d8764;fontColor=#ffffff;strokeColor=#3A5431;" vertex="1" parent="1">
          <mxGeometry x="-180" y="510" width="90" height="30" as="geometry" />
        </mxCell>
        <mxCell id="anM-W0v6J8RK6cMc1XP8-172" style="edgeStyle=orthogonalEdgeStyle;rounded=0;orthogonalLoop=1;jettySize=auto;html=1;entryX=0.076;entryY=1.01;entryDx=0;entryDy=0;entryPerimeter=0;endArrow=none;endFill=0;" edge="1" parent="1" source="anM-W0v6J8RK6cMc1XP8-165" target="anM-W0v6J8RK6cMc1XP8-156">
          <mxGeometry relative="1" as="geometry" />
        </mxCell>
        <mxCell id="anM-W0v6J8RK6cMc1XP8-175" value="*" style="text;html=1;align=center;verticalAlign=middle;resizable=0;points=[];autosize=1;strokeColor=none;fillColor=none;" vertex="1" parent="1">
          <mxGeometry x="-195" y="430" width="30" height="30" as="geometry" />
        </mxCell>
        <mxCell id="anM-W0v6J8RK6cMc1XP8-176" value="1" style="text;html=1;align=center;verticalAlign=middle;resizable=0;points=[];autosize=1;strokeColor=none;fillColor=none;" vertex="1" parent="1">
          <mxGeometry x="70" y="275" width="30" height="30" as="geometry" />
        </mxCell>
        <mxCell id="anM-W0v6J8RK6cMc1XP8-184" style="edgeStyle=orthogonalEdgeStyle;rounded=0;orthogonalLoop=1;jettySize=auto;html=1;entryX=1;entryY=0;entryDx=0;entryDy=0;endArrow=none;endFill=0;" edge="1" parent="1" source="anM-W0v6J8RK6cMc1XP8-177" target="anM-W0v6J8RK6cMc1XP8-178">
          <mxGeometry relative="1" as="geometry" />
        </mxCell>
        <mxCell id="anM-W0v6J8RK6cMc1XP8-177" value="Agjensioni" style="whiteSpace=wrap;html=1;align=center;fillColor=#fa6800;fontColor=#000000;strokeColor=#C73500;" vertex="1" parent="1">
          <mxGeometry x="700" y="715" width="100" height="40" as="geometry" />
        </mxCell>
        <mxCell id="anM-W0v6J8RK6cMc1XP8-178" value="Emri" style="ellipse;whiteSpace=wrap;html=1;align=center;fillColor=#f0a30a;fontColor=#000000;strokeColor=#BD7000;" vertex="1" parent="1">
          <mxGeometry x="580" y="770" width="80" height="30" as="geometry" />
        </mxCell>
        <mxCell id="anM-W0v6J8RK6cMc1XP8-185" style="edgeStyle=orthogonalEdgeStyle;rounded=0;orthogonalLoop=1;jettySize=auto;html=1;entryX=0.25;entryY=1;entryDx=0;entryDy=0;endArrow=none;endFill=0;" edge="1" parent="1" source="anM-W0v6J8RK6cMc1XP8-179" target="anM-W0v6J8RK6cMc1XP8-177">
          <mxGeometry relative="1" as="geometry" />
        </mxCell>
        <mxCell id="anM-W0v6J8RK6cMc1XP8-179" value="ID" style="ellipse;whiteSpace=wrap;html=1;align=center;fontStyle=4;fillColor=#f0a30a;fontColor=#000000;strokeColor=#BD7000;" vertex="1" parent="1">
          <mxGeometry x="670" y="802.5" width="80" height="30" as="geometry" />
        </mxCell>
        <mxCell id="anM-W0v6J8RK6cMc1XP8-187" style="edgeStyle=orthogonalEdgeStyle;rounded=0;orthogonalLoop=1;jettySize=auto;html=1;entryX=1;entryY=0.5;entryDx=0;entryDy=0;endArrow=none;endFill=0;" edge="1" parent="1" source="anM-W0v6J8RK6cMc1XP8-180" target="anM-W0v6J8RK6cMc1XP8-177">
          <mxGeometry relative="1" as="geometry" />
        </mxCell>
        <mxCell id="anM-W0v6J8RK6cMc1XP8-180" value="Lokacioni" style="ellipse;whiteSpace=wrap;html=1;align=center;fillColor=#f0a30a;fontColor=#000000;strokeColor=#BD7000;" vertex="1" parent="1">
          <mxGeometry x="840" y="720" width="80" height="30" as="geometry" />
        </mxCell>
        <mxCell id="anM-W0v6J8RK6cMc1XP8-186" style="edgeStyle=orthogonalEdgeStyle;rounded=0;orthogonalLoop=1;jettySize=auto;html=1;entryX=1;entryY=1;entryDx=0;entryDy=0;endArrow=none;endFill=0;" edge="1" parent="1" source="anM-W0v6J8RK6cMc1XP8-181" target="anM-W0v6J8RK6cMc1XP8-177">
          <mxGeometry relative="1" as="geometry" />
        </mxCell>
        <mxCell id="anM-W0v6J8RK6cMc1XP8-181" value="Licensa" style="ellipse;whiteSpace=wrap;html=1;align=center;fillColor=#f0a30a;fontColor=#000000;strokeColor=#BD7000;" vertex="1" parent="1">
          <mxGeometry x="770" y="800" width="90" height="35" as="geometry" />
        </mxCell>
        <mxCell id="anM-W0v6J8RK6cMc1XP8-182" value="Qyteti" style="ellipse;whiteSpace=wrap;html=1;align=center;fillColor=#f0a30a;fontColor=#000000;strokeColor=#BD7000;" vertex="1" parent="1">
          <mxGeometry x="1010" y="740" width="80" height="30" as="geometry" />
        </mxCell>
        <mxCell id="anM-W0v6J8RK6cMc1XP8-189" style="edgeStyle=orthogonalEdgeStyle;rounded=0;orthogonalLoop=1;jettySize=auto;html=1;entryX=0.5;entryY=1;entryDx=0;entryDy=0;endArrow=none;endFill=0;" edge="1" parent="1" source="anM-W0v6J8RK6cMc1XP8-183" target="anM-W0v6J8RK6cMc1XP8-180">
          <mxGeometry relative="1" as="geometry" />
        </mxCell>
        <mxCell id="anM-W0v6J8RK6cMc1XP8-183" value="Rruga" style="ellipse;whiteSpace=wrap;html=1;align=center;fillColor=#f0a30a;fontColor=#000000;strokeColor=#BD7000;" vertex="1" parent="1">
          <mxGeometry x="920" y="805" width="80" height="30" as="geometry" />
        </mxCell>
        <mxCell id="anM-W0v6J8RK6cMc1XP8-188" style="edgeStyle=orthogonalEdgeStyle;rounded=0;orthogonalLoop=1;jettySize=auto;html=1;entryX=0.95;entryY=0.773;entryDx=0;entryDy=0;entryPerimeter=0;endArrow=none;endFill=0;" edge="1" parent="1" source="anM-W0v6J8RK6cMc1XP8-182" target="anM-W0v6J8RK6cMc1XP8-180">
          <mxGeometry relative="1" as="geometry" />
        </mxCell>
        <mxCell id="anM-W0v6J8RK6cMc1XP8-191" style="edgeStyle=orthogonalEdgeStyle;rounded=0;orthogonalLoop=1;jettySize=auto;html=1;entryX=0;entryY=1;entryDx=0;entryDy=0;endArrow=none;endFill=0;" edge="1" parent="1" source="anM-W0v6J8RK6cMc1XP8-190" target="anM-W0v6J8RK6cMc1XP8-116">
          <mxGeometry relative="1" as="geometry" />
        </mxCell>
        <mxCell id="anM-W0v6J8RK6cMc1XP8-192" style="edgeStyle=orthogonalEdgeStyle;rounded=0;orthogonalLoop=1;jettySize=auto;html=1;entryX=0.25;entryY=0;entryDx=0;entryDy=0;endArrow=none;endFill=0;" edge="1" parent="1" source="anM-W0v6J8RK6cMc1XP8-190" target="anM-W0v6J8RK6cMc1XP8-177">
          <mxGeometry relative="1" as="geometry" />
        </mxCell>
        <mxCell id="anM-W0v6J8RK6cMc1XP8-190" value="Ka" style="shape=rhombus;perimeter=rhombusPerimeter;whiteSpace=wrap;html=1;align=center;fillColor=#e3c800;fontColor=#000000;strokeColor=#B09500;" vertex="1" parent="1">
          <mxGeometry x="640" y="600" width="120" height="60" as="geometry" />
        </mxCell>
        <mxCell id="anM-W0v6J8RK6cMc1XP8-193" value="1" style="text;html=1;align=center;verticalAlign=middle;resizable=0;points=[];autosize=1;strokeColor=none;fillColor=none;" vertex="1" parent="1">
          <mxGeometry x="695" y="335" width="30" height="30" as="geometry" />
        </mxCell>
        <mxCell id="anM-W0v6J8RK6cMc1XP8-194" value="1" style="text;html=1;align=center;verticalAlign=middle;resizable=0;points=[];autosize=1;strokeColor=none;fillColor=none;" vertex="1" parent="1">
          <mxGeometry x="720" y="690" width="30" height="30" as="geometry" />
        </mxCell>
        <mxCell id="anM-W0v6J8RK6cMc1XP8-196" style="edgeStyle=orthogonalEdgeStyle;rounded=0;orthogonalLoop=1;jettySize=auto;html=1;entryX=0.75;entryY=1;entryDx=0;entryDy=0;endArrow=none;endFill=0;fillColor=#f0a30a;strokeColor=#BD7000;" edge="1" parent="1" source="anM-W0v6J8RK6cMc1XP8-195" target="anM-W0v6J8RK6cMc1XP8-116">
          <mxGeometry relative="1" as="geometry" />
        </mxCell>
        <mxCell id="anM-W0v6J8RK6cMc1XP8-197" style="edgeStyle=orthogonalEdgeStyle;rounded=0;orthogonalLoop=1;jettySize=auto;html=1;entryX=0.75;entryY=0;entryDx=0;entryDy=0;endArrow=none;endFill=0;fillColor=#f0a30a;strokeColor=#BD7000;" edge="1" parent="1" source="anM-W0v6J8RK6cMc1XP8-195" target="anM-W0v6J8RK6cMc1XP8-177">
          <mxGeometry relative="1" as="geometry" />
        </mxCell>
        <mxCell id="anM-W0v6J8RK6cMc1XP8-195" value="Menaxhon" style="shape=rhombus;perimeter=rhombusPerimeter;whiteSpace=wrap;html=1;align=center;fillColor=#e51400;fontColor=#ffffff;strokeColor=#B20000;" vertex="1" parent="1">
          <mxGeometry x="790" y="605" width="120" height="60" as="geometry" />
        </mxCell>
        <mxCell id="anM-W0v6J8RK6cMc1XP8-198" value="1" style="text;html=1;align=center;verticalAlign=middle;resizable=0;points=[];autosize=1;strokeColor=none;fillColor=none;" vertex="1" parent="1">
          <mxGeometry x="755" y="690" width="30" height="30" as="geometry" />
        </mxCell>
        <mxCell id="anM-W0v6J8RK6cMc1XP8-200" value="*" style="text;html=1;align=center;verticalAlign=middle;resizable=0;points=[];autosize=1;strokeColor=none;fillColor=none;" vertex="1" parent="1">
          <mxGeometry x="770" y="332.5" width="30" height="30" as="geometry" />
        </mxCell>
        <mxCell id="anM-W0v6J8RK6cMc1XP8-201" value="Aeroporti" style="rounded=1;arcSize=10;whiteSpace=wrap;html=1;align=center;fillColor=#6a00ff;fontColor=#ffffff;strokeColor=#3700CC;" vertex="1" parent="1">
          <mxGeometry x="390" y="940" width="100" height="40" as="geometry" />
        </mxCell>
        <mxCell id="anM-W0v6J8RK6cMc1XP8-208" style="edgeStyle=orthogonalEdgeStyle;rounded=0;orthogonalLoop=1;jettySize=auto;html=1;entryX=0.25;entryY=1;entryDx=0;entryDy=0;endArrow=none;endFill=0;" edge="1" parent="1" source="anM-W0v6J8RK6cMc1XP8-202" target="anM-W0v6J8RK6cMc1XP8-201">
          <mxGeometry relative="1" as="geometry" />
        </mxCell>
        <mxCell id="anM-W0v6J8RK6cMc1XP8-202" value="ID" style="ellipse;whiteSpace=wrap;html=1;align=center;fontStyle=4;fillColor=#0050ef;fontColor=#ffffff;strokeColor=#001DBC;" vertex="1" parent="1">
          <mxGeometry x="230" y="1020" width="100" height="40" as="geometry" />
        </mxCell>
        <mxCell id="anM-W0v6J8RK6cMc1XP8-209" style="edgeStyle=orthogonalEdgeStyle;rounded=0;orthogonalLoop=1;jettySize=auto;html=1;entryX=0.5;entryY=1;entryDx=0;entryDy=0;endArrow=none;endFill=0;" edge="1" parent="1" source="anM-W0v6J8RK6cMc1XP8-203" target="anM-W0v6J8RK6cMc1XP8-201">
          <mxGeometry relative="1" as="geometry" />
        </mxCell>
        <mxCell id="anM-W0v6J8RK6cMc1XP8-203" value="Emri" style="ellipse;whiteSpace=wrap;html=1;align=center;fillColor=#0050ef;fontColor=#ffffff;strokeColor=#001DBC;" vertex="1" parent="1">
          <mxGeometry x="340" y="1060" width="100" height="40" as="geometry" />
        </mxCell>
        <mxCell id="anM-W0v6J8RK6cMc1XP8-204" value="Lokacioni" style="ellipse;whiteSpace=wrap;html=1;align=center;fillColor=#0050ef;fontColor=#ffffff;strokeColor=#001DBC;" vertex="1" parent="1">
          <mxGeometry x="520" y="1030" width="100" height="40" as="geometry" />
        </mxCell>
        <mxCell id="anM-W0v6J8RK6cMc1XP8-214" style="edgeStyle=orthogonalEdgeStyle;rounded=0;orthogonalLoop=1;jettySize=auto;html=1;entryX=0;entryY=1;entryDx=0;entryDy=0;endArrow=none;endFill=0;" edge="1" parent="1" source="anM-W0v6J8RK6cMc1XP8-205" target="anM-W0v6J8RK6cMc1XP8-204">
          <mxGeometry relative="1" as="geometry" />
        </mxCell>
        <mxCell id="anM-W0v6J8RK6cMc1XP8-205" value="Qyteti" style="ellipse;whiteSpace=wrap;html=1;align=center;fillColor=#0050ef;fontColor=#ffffff;strokeColor=#001DBC;" vertex="1" parent="1">
          <mxGeometry x="440" y="1120" width="100" height="40" as="geometry" />
        </mxCell>
        <mxCell id="anM-W0v6J8RK6cMc1XP8-212" style="edgeStyle=orthogonalEdgeStyle;rounded=0;orthogonalLoop=1;jettySize=auto;html=1;entryX=0.5;entryY=1;entryDx=0;entryDy=0;endArrow=none;endFill=0;" edge="1" parent="1" source="anM-W0v6J8RK6cMc1XP8-206" target="anM-W0v6J8RK6cMc1XP8-204">
          <mxGeometry relative="1" as="geometry" />
        </mxCell>
        <mxCell id="anM-W0v6J8RK6cMc1XP8-206" value="Shteti" style="ellipse;whiteSpace=wrap;html=1;align=center;fillColor=#0050ef;fontColor=#ffffff;strokeColor=#001DBC;" vertex="1" parent="1">
          <mxGeometry x="590" y="1120" width="100" height="40" as="geometry" />
        </mxCell>
        <mxCell id="anM-W0v6J8RK6cMc1XP8-207" value="Rruga" style="ellipse;whiteSpace=wrap;html=1;align=center;fillColor=#0050ef;fontColor=#ffffff;strokeColor=#001DBC;" vertex="1" parent="1">
          <mxGeometry x="655" y="1050" width="100" height="40" as="geometry" />
        </mxCell>
        <mxCell id="anM-W0v6J8RK6cMc1XP8-211" style="edgeStyle=orthogonalEdgeStyle;rounded=0;orthogonalLoop=1;jettySize=auto;html=1;entryX=0.75;entryY=1;entryDx=0;entryDy=0;endArrow=none;endFill=0;" edge="1" parent="1" source="anM-W0v6J8RK6cMc1XP8-204" target="anM-W0v6J8RK6cMc1XP8-201">
          <mxGeometry relative="1" as="geometry" />
        </mxCell>
        <mxCell id="anM-W0v6J8RK6cMc1XP8-213" style="edgeStyle=orthogonalEdgeStyle;rounded=0;orthogonalLoop=1;jettySize=auto;html=1;entryX=1;entryY=0.81;entryDx=0;entryDy=0;entryPerimeter=0;endArrow=none;endFill=0;" edge="1" parent="1" source="anM-W0v6J8RK6cMc1XP8-207" target="anM-W0v6J8RK6cMc1XP8-204">
          <mxGeometry relative="1" as="geometry" />
        </mxCell>
        <mxCell id="anM-W0v6J8RK6cMc1XP8-216" style="edgeStyle=orthogonalEdgeStyle;rounded=0;orthogonalLoop=1;jettySize=auto;html=1;entryX=1;entryY=0.5;entryDx=0;entryDy=0;endArrow=none;endFill=0;" edge="1" parent="1" source="anM-W0v6J8RK6cMc1XP8-215" target="anM-W0v6J8RK6cMc1XP8-201">
          <mxGeometry relative="1" as="geometry" />
        </mxCell>
        <mxCell id="anM-W0v6J8RK6cMc1XP8-217" style="edgeStyle=orthogonalEdgeStyle;rounded=0;orthogonalLoop=1;jettySize=auto;html=1;entryX=0.5;entryY=1;entryDx=0;entryDy=0;endArrow=none;endFill=0;" edge="1" parent="1" source="anM-W0v6J8RK6cMc1XP8-215" target="anM-W0v6J8RK6cMc1XP8-177">
          <mxGeometry relative="1" as="geometry" />
        </mxCell>
        <mxCell id="anM-W0v6J8RK6cMc1XP8-215" value="Kane marreveshje" style="shape=rhombus;perimeter=rhombusPerimeter;whiteSpace=wrap;html=1;align=center;fillColor=#1ba1e2;fontColor=#ffffff;strokeColor=#006EAF;" vertex="1" parent="1">
          <mxGeometry x="560" y="870" width="120" height="60" as="geometry" />
        </mxCell>
        <mxCell id="anM-W0v6J8RK6cMc1XP8-218" value="*" style="text;html=1;align=center;verticalAlign=middle;resizable=0;points=[];autosize=1;strokeColor=none;fillColor=none;" vertex="1" parent="1">
          <mxGeometry x="480" y="958" width="30" height="30" as="geometry" />
        </mxCell>
        <mxCell id="anM-W0v6J8RK6cMc1XP8-220" value="*" style="text;html=1;align=center;verticalAlign=middle;resizable=0;points=[];autosize=1;strokeColor=none;fillColor=none;" vertex="1" parent="1">
          <mxGeometry x="740" y="750" width="30" height="30" as="geometry" />
        </mxCell>
        <mxCell id="anM-W0v6J8RK6cMc1XP8-222" style="edgeStyle=orthogonalEdgeStyle;rounded=0;orthogonalLoop=1;jettySize=auto;html=1;entryX=0.75;entryY=0;entryDx=0;entryDy=0;endArrow=none;endFill=0;" edge="1" parent="1" target="anM-W0v6J8RK6cMc1XP8-56">
          <mxGeometry relative="1" as="geometry">
            <mxPoint x="410.0800000000004" y="680.04" as="sourcePoint" />
          </mxGeometry>
        </mxCell>
        <mxCell id="anM-W0v6J8RK6cMc1XP8-223" style="edgeStyle=orthogonalEdgeStyle;rounded=0;orthogonalLoop=1;jettySize=auto;html=1;entryX=0;entryY=0.25;entryDx=0;entryDy=0;endArrow=none;endFill=0;" edge="1" parent="1" target="anM-W0v6J8RK6cMc1XP8-177">
          <mxGeometry relative="1" as="geometry">
            <mxPoint x="529.9199999999996" y="680.04" as="sourcePoint" />
          </mxGeometry>
        </mxCell>
        <mxCell id="anM-W0v6J8RK6cMc1XP8-224" value="1" style="text;html=1;align=center;verticalAlign=middle;resizable=0;points=[];autosize=1;strokeColor=none;fillColor=none;" vertex="1" parent="1">
          <mxGeometry x="680" y="700" width="30" height="30" as="geometry" />
        </mxCell>
        <mxCell id="anM-W0v6J8RK6cMc1XP8-225" value="*" style="text;html=1;align=center;verticalAlign=middle;resizable=0;points=[];autosize=1;strokeColor=none;fillColor=none;" vertex="1" parent="1">
          <mxGeometry x="145" y="550" width="30" height="30" as="geometry" />
        </mxCell>
        <mxCell id="anM-W0v6J8RK6cMc1XP8-226" value="Operon" style="shape=rhombus;perimeter=rhombusPerimeter;whiteSpace=wrap;html=1;align=center;fillColor=#fad9d5;strokeColor=#ae4132;fontColor=#000000;" vertex="1" parent="1">
          <mxGeometry x="410" y="650" width="120" height="60" as="geometry" />
        </mxCell>
        <mxCell id="anM-W0v6J8RK6cMc1XP8-229" style="edgeStyle=orthogonalEdgeStyle;rounded=0;orthogonalLoop=1;jettySize=auto;html=1;entryX=0;entryY=0.5;entryDx=0;entryDy=0;endArrow=none;endFill=0;fillColor=#0050ef;strokeColor=#001DBC;" edge="1" parent="1" source="anM-W0v6J8RK6cMc1XP8-227" target="anM-W0v6J8RK6cMc1XP8-201">
          <mxGeometry relative="1" as="geometry" />
        </mxCell>
        <mxCell id="anM-W0v6J8RK6cMc1XP8-227" value="Departon" style="shape=rhombus;perimeter=rhombusPerimeter;whiteSpace=wrap;html=1;align=center;fillColor=#a20025;fontColor=#ffffff;strokeColor=#6F0000;" vertex="1" parent="1">
          <mxGeometry x="270" y="805" width="120" height="60" as="geometry" />
        </mxCell>
        <mxCell id="anM-W0v6J8RK6cMc1XP8-228" style="edgeStyle=orthogonalEdgeStyle;rounded=0;orthogonalLoop=1;jettySize=auto;html=1;entryX=0.844;entryY=1.033;entryDx=0;entryDy=0;entryPerimeter=0;endArrow=none;endFill=0;fillColor=#0050ef;strokeColor=#001DBC;" edge="1" parent="1" source="anM-W0v6J8RK6cMc1XP8-227" target="anM-W0v6J8RK6cMc1XP8-56">
          <mxGeometry relative="1" as="geometry" />
        </mxCell>
        <mxCell id="anM-W0v6J8RK6cMc1XP8-230" value="1" style="text;html=1;align=center;verticalAlign=middle;resizable=0;points=[];autosize=1;strokeColor=none;fillColor=none;" vertex="1" parent="1">
          <mxGeometry x="165" y="605" width="30" height="30" as="geometry" />
        </mxCell>
        <mxCell id="anM-W0v6J8RK6cMc1XP8-232" value="1" style="text;html=1;align=center;verticalAlign=middle;resizable=0;points=[];autosize=1;strokeColor=none;fillColor=none;" vertex="1" parent="1">
          <mxGeometry x="365" y="958" width="30" height="30" as="geometry" />
        </mxCell>
        <mxCell id="anM-W0v6J8RK6cMc1XP8-235" style="edgeStyle=orthogonalEdgeStyle;rounded=0;orthogonalLoop=1;jettySize=auto;html=1;entryX=0.75;entryY=0;entryDx=0;entryDy=0;endArrow=none;endFill=0;" edge="1" parent="1" source="anM-W0v6J8RK6cMc1XP8-234" target="anM-W0v6J8RK6cMc1XP8-233">
          <mxGeometry relative="1" as="geometry" />
        </mxCell>
        <mxCell id="anM-W0v6J8RK6cMc1XP8-237" style="edgeStyle=orthogonalEdgeStyle;rounded=0;orthogonalLoop=1;jettySize=auto;html=1;entryX=0;entryY=0.75;entryDx=0;entryDy=0;endArrow=none;endFill=0;" edge="1" parent="1" source="anM-W0v6J8RK6cMc1XP8-234" target="anM-W0v6J8RK6cMc1XP8-177">
          <mxGeometry relative="1" as="geometry" />
        </mxCell>
        <mxCell id="anM-W0v6J8RK6cMc1XP8-234" value="Konfirmon" style="shape=rhombus;perimeter=rhombusPerimeter;whiteSpace=wrap;html=1;align=center;fillColor=#60a917;fontColor=#ffffff;strokeColor=#2D7600;" vertex="1" parent="1">
          <mxGeometry x="380" y="370" width="120" height="60" as="geometry" />
        </mxCell>
        <mxCell id="anM-W0v6J8RK6cMc1XP8-238" value="1" style="text;html=1;align=center;verticalAlign=middle;resizable=0;points=[];autosize=1;strokeColor=none;fillColor=none;" vertex="1" parent="1">
          <mxGeometry x="210" y="308" width="30" height="30" as="geometry" />
        </mxCell>
        <mxCell id="anM-W0v6J8RK6cMc1XP8-239" value="1" style="text;html=1;align=center;verticalAlign=middle;resizable=0;points=[];autosize=1;strokeColor=none;fillColor=none;" vertex="1" parent="1">
          <mxGeometry x="680" y="740" width="30" height="30" as="geometry" />
        </mxCell>
        <mxCell id="anM-W0v6J8RK6cMc1XP8-241" style="edgeStyle=orthogonalEdgeStyle;rounded=0;orthogonalLoop=1;jettySize=auto;html=1;entryX=1;entryY=1;entryDx=0;entryDy=0;endArrow=none;endFill=0;fillColor=#fa6800;strokeColor=#C73500;" edge="1" parent="1" source="anM-W0v6J8RK6cMc1XP8-240" target="anM-W0v6J8RK6cMc1XP8-1">
          <mxGeometry relative="1" as="geometry" />
        </mxCell>
        <mxCell id="anM-W0v6J8RK6cMc1XP8-240" value="Qetsëson" style="shape=rhombus;perimeter=rhombusPerimeter;whiteSpace=wrap;html=1;align=center;fillColor=#a20025;fontColor=#ffffff;strokeColor=#6F0000;" vertex="1" parent="1">
          <mxGeometry x="270" y="130" width="120" height="60" as="geometry" />
        </mxCell>
        <mxCell id="anM-W0v6J8RK6cMc1XP8-243" style="edgeStyle=orthogonalEdgeStyle;rounded=0;orthogonalLoop=1;jettySize=auto;html=1;entryX=0.631;entryY=0.022;entryDx=0;entryDy=0;entryPerimeter=0;endArrow=none;endFill=0;fillColor=#fa6800;strokeColor=#C73500;" edge="1" parent="1" source="anM-W0v6J8RK6cMc1XP8-240" target="anM-W0v6J8RK6cMc1XP8-1">
          <mxGeometry relative="1" as="geometry" />
        </mxCell>
        <mxCell id="anM-W0v6J8RK6cMc1XP8-244" value="1" style="text;html=1;align=center;verticalAlign=middle;resizable=0;points=[];autosize=1;strokeColor=none;fillColor=none;" vertex="1" parent="1">
          <mxGeometry x="160" y="160" width="30" height="30" as="geometry" />
        </mxCell>
        <mxCell id="anM-W0v6J8RK6cMc1XP8-245" value="1" style="text;html=1;align=center;verticalAlign=middle;resizable=0;points=[];autosize=1;strokeColor=none;fillColor=none;" vertex="1" parent="1">
          <mxGeometry x="125" y="100" width="30" height="30" as="geometry" />
        </mxCell>
      </root>
    </mxGraphModel>
  </diagram>
</mxfile>
